HIERARCHY
ROOT Hips
{
	OFFSET 0.000000 0.000000 0.000000
	CHANNELS 6 Xposition Yposition Zposition Zrotation Yrotation Xrotation 
	JOINT LowerBack
	{
		OFFSET 0.000000 0.000000 0.000000
		CHANNELS 3 Zrotation Yrotation Xrotation
		JOINT Spine
		{
			OFFSET 0.028270 2.035590 -0.193380
			CHANNELS 3 Zrotation Yrotation Xrotation
			JOINT Spine1
			{
				OFFSET 0.056720 2.048850 -0.042750
				CHANNELS 3 Zrotation Yrotation Xrotation
				JOINT Neck
				{
					OFFSET 0.000000 0.000000 0.000000
					CHANNELS 3 Zrotation Yrotation Xrotation
					JOINT Neck1
					{
						OFFSET -0.054170 1.746240 0.172020
						CHANNELS 3 Zrotation Yrotation Xrotation
						JOINT Head
						{
							OFFSET 0.104070 1.761360 -0.123970
							CHANNELS 3 Zrotation Yrotation Xrotation
							End Site
							{
								OFFSET 0.000000 0.000000 0.000000
							}
						}
					}
				}
				JOINT LeftShoulder
				{
					OFFSET 0.000000 0.000000 0.000000
					CHANNELS 3 Zrotation Yrotation Xrotation
					JOINT LeftArm
					{
						OFFSET 3.362410 1.200890 -0.311210
						CHANNELS 3 Zrotation Yrotation Xrotation
						JOINT LeftForeArm
						{
							OFFSET 4.983000 -0.000000 -0.000000
							CHANNELS 3 Zrotation Yrotation Xrotation
							JOINT LeftHand
							{
								OFFSET 3.483560 -0.000000 -0.000000
								CHANNELS 3 Zrotation Yrotation Xrotation
								JOINT LeftFingerBase
								{
									OFFSET 0.000000 0.000000 0.000000
									CHANNELS 3 Zrotation Yrotation Xrotation
									JOINT LeftHandIndex1
									{
										OFFSET 0.715260 -0.000000 -0.000000
										CHANNELS 3 Zrotation Yrotation Xrotation
										End Site
										{
											OFFSET 0.000000 0.000000 0.000000
										}
									}
								}
								JOINT LThumb
								{
									OFFSET 0.000000 0.000000 0.000000
									CHANNELS 3 Zrotation Yrotation Xrotation
									End Site
									{
										OFFSET 0.000000 0.000000 0.000000
									}
								}
							}
						}
					}
				}
				JOINT RightShoulder
				{
					OFFSET 0.000000 0.000000 0.000000
					CHANNELS 3 Zrotation Yrotation Xrotation
					JOINT RightArm
					{
						OFFSET -3.136600 1.374050 -0.404650
						CHANNELS 3 Zrotation Yrotation Xrotation
						JOINT RightForeArm
						{
							OFFSET -5.241900 -0.000000 -0.000000
							CHANNELS 3 Zrotation Yrotation Xrotation
							JOINT RightHand
							{
								OFFSET -3.444170 -0.000000 -0.000000
								CHANNELS 3 Zrotation Yrotation Xrotation
								JOINT RightFingerBase
								{
									OFFSET 0.000000 0.000000 0.000000
									CHANNELS 3 Zrotation Yrotation Xrotation
									JOINT RightHandIndex1
									{
										OFFSET -0.622530 -0.000000 -0.000000
										CHANNELS 3 Zrotation Yrotation Xrotation
										End Site
										{
											OFFSET 0.000000 0.000000 0.000000
										}
									}
								}
								JOINT RThumb
								{
									OFFSET 0.000000 0.000000 0.000000
									CHANNELS 3 Zrotation Yrotation Xrotation
									End Site
									{
										OFFSET 0.000000 0.000000 0.000000
									}
								}
							}
						}
					}
				}
			}
		}
	}
}
}
MOTION
Frames: 7
Frame Time: 0.008333
6.092889 16.739668 -7.026291 -175.155640 33.543903 -174.689334 -2.298956 1.222479 -3.466815 -1.000013 1.265198 -2.878569 -4.618008 1.206940 3.217615 9.393231 -12.525251 -10.489887 -0.972536 -0.038976 -0.733607 0.000000 0.000000 0.000000 -6.361249 28.383944 1.283958 -78.687786 28.337239 -8.790262 -4.397295 -10.893342 -0.025655 -4.990113 9.297728 -0.406063 -0.080558 -0.136606 0.000000 0.000000 0.000000 0.000000 0.000000 0.000000 0.000000 8.062308 -7.186525 0.981263 36.496817 9.733509 -0.264953 2.263574 37.988875 0.008231 1.960261 2.214336 0.038750 0.083035 -0.114810 -0.000000 0.000000 0.000000 0.000000 0.000000 0.000000 0.000000 
6.162362 16.734690 -7.189217 -175.186675 32.822252 -174.788960 -2.377472 1.048435 -3.355346 -1.002770 1.099670 -2.867635 -4.620365 1.039249 3.173692 9.472646 -12.647909 -10.547829 -0.999382 -0.040125 -0.749269 0.000000 0.000000 0.000000 -6.220928 27.915661 1.327613 -78.653191 27.533129 -8.835855 -4.377007 -10.542555 -0.024772 -4.677733 9.275168 -0.378948 -0.082097 -0.132393 0.000000 0.000000 0.000000 0.000000 0.000000 0.000000 0.000000 8.224036 -7.345979 0.972252 36.936820 9.311355 -0.296921 2.266359 38.333539 0.008051 1.821684 2.217227 0.035857 0.085255 -0.114622 -0.000000 0.000000 0.000000 0.000000 0.000000 0.000000 0.000000 
6.228772 16.728489 -7.347165 -175.224933 32.001966 -174.902123 -2.453167 0.856580 -3.188397 -1.003752 0.917959 -2.848247 -4.621121 0.855840 3.121046 9.545400 -12.798730 -10.608981 -1.027921 -0.041274 -0.766023 0.000000 0.000000 0.000000 -6.043164 27.343972 1.376628 -78.631098 26.623640 -8.704915 -4.350439 -10.242175 -0.023831 -4.356771 9.250818 -0.351331 -0.083351 -0.127775 0.000000 0.000000 0.000000 0.000000 0.000000 0.000000 0.000000 8.382813 -7.543904 0.965564 37.463588 8.848612 -0.327447 2.273332 38.674830 0.007836 1.657455 2.215537 0.032465 0.088023 -0.114314 -0.000000 0.000000 0.000000 0.000000 0.000000 0.000000 0.000000 
6.292196 16.721478 -7.500697 -175.272945 31.109339 -175.026703 -2.522260 0.655130 -2.978716 -1.003525 0.727501 -2.822981 -4.622144 0.664169 3.060008 9.609685 -12.966914 -10.665414 -1.058427 -0.042586 -0.781647 0.000000 0.000000 0.000000 -5.834312 26.681933 1.426116 -78.612113 25.626655 -8.398042 -4.318822 -10.019418 -0.022859 -4.041780 9.218834 -0.324012 -0.084270 -0.122793 0.000000 0.000000 0.000000 0.000000 0.000000 0.000000 0.000000 8.535227 -7.767481 0.960429 38.080140 8.333935 -0.359614 2.285259 39.008340 0.007608 1.489612 2.206493 0.028874 0.091074 -0.113763 -0.000000 0.000000 0.000000 0.000000 0.000000 0.000000 0.000000 
6.352732 16.714240 -7.650684 -175.327023 30.175429 -175.153749 -2.579300 0.452159 -2.743047 -1.002347 0.535360 -2.793683 -4.626085 0.471409 2.996085 9.671143 -13.168917 -10.715250 -1.090829 -0.044103 -0.795565 0.000000 0.000000 0.000000 -5.606229 25.957555 1.468519 -78.580859 24.546941 -7.931592 -4.283410 -9.891336 -0.021867 -3.744448 9.169375 -0.297891 -0.084845 -0.117487 0.000000 0.000000 0.000000 0.000000 0.000000 0.000000 0.000000 8.695230 -8.033284 0.956427 38.763987 7.807317 -0.353621 2.302264 39.311075 0.007373 1.319798 2.193529 0.025283 0.094354 -0.112831 -0.000000 0.000000 0.000000 0.000000 0.000000 0.000000 0.000000 
6.410555 16.707352 -7.797982 -175.390677 29.231109 -175.277547 -2.621992 0.254851 -2.500612 -1.000807 0.347901 -2.764328 -4.634969 0.283748 2.928980 9.726404 -13.378723 -10.748710 -1.126307 -0.046104 -0.804978 0.000000 0.000000 0.000000 -5.370255 25.189255 1.499900 -78.524396 23.405939 -7.317609 -4.245380 -9.884759 -0.020869 -3.475477 9.092194 -0.273467 -0.085076 -0.111903 0.000000 0.000000 0.000000 0.000000 0.000000 0.000000 0.000000 8.856889 -8.312041 0.951512 39.523337 7.242425 -0.332219 2.325091 39.581466 0.007167 1.173395 2.175711 0.022091 0.097546 -0.111453 -0.000000 0.000000 0.000000 0.000000 0.000000 0.000000 0.000000 
6.465992 16.701468 -7.943332 -175.465127 28.306727 -175.391364 -2.646754 0.069029 -2.269220 -0.998922 0.170145 -2.737417 -4.650754 0.106135 2.862324 9.778079 -13.593912 -10.762399 -1.165728 -0.048743 -0.808844 0.000000 0.000000 0.000000 -5.140489 24.404576 1.515284 -78.426912 22.211630 -6.582841 -4.205800 -10.013481 -0.019856 -3.240115 8.974057 -0.251040 -0.085009 -0.106073 0.000000 0.000000 0.000000 0.000000 0.000000 0.000000 0.000000 9.028503 -8.599986 0.944121 40.345408 6.655476 -0.286298 2.353935 39.804286 0.007003 1.056691 2.155899 0.019502 0.100537 -0.109568 -0.000000 0.000000 0.000000 0.000000 0.000000 0.000000 0.000000 
